<?xml version="1.0" encoding="UTF-8"?>
<svg version="1.1" xmlns="http://www.w3.org/2000/svg" width="1024" height="1024">
<path d="M0 0 C1.1446875 0.28230469 2.289375 0.56460938 3.46875 0.85546875 C9.04674472 2.27153184 9.04674472 2.27153184 11 3 C11.33 3.66 11.66 4.32 12 5 C13.83447272 5.76327162 13.83447272 5.76327162 16.04296875 6.3671875 C20.74549272 7.85258645 24.97335192 9.79728338 29.3125 12.125 C30.41597778 12.71486694 30.41597778 12.71486694 31.54174805 13.31665039 C38.20580827 16.96579184 44.10824247 21.19040202 50 26 C51.13399438 26.90640041 52.26811309 27.81264528 53.40234375 28.71875 C59.50696186 33.66167168 59.50696186 33.66167168 62 36 C62 36.66 62 37.32 62 38 C62.55558594 38.2165625 63.11117188 38.433125 63.68359375 38.65625 C83.16588872 49.95795231 95.07437527 82.74047695 100.75 103.19140625 C103.4575745 113.39142307 105.13914739 123.48334962 106 134 C106.98693848 133.97381592 107.97387695 133.94763184 108.99072266 133.9206543 C112.72176609 133.82880115 116.45271436 133.77227157 120.18457031 133.7253418 C121.78663035 133.70049993 123.38858082 133.66661345 124.99023438 133.62280273 C139.94460486 133.22458172 152.00686418 135.2737092 163.66015625 145.609375 C172.29058733 154.42711093 176.34296534 164.79772651 177.59179688 176.90722656 C177.76953266 178.46991964 177.76953266 178.46991964 177.95085907 180.06418228 C178.31999988 183.37438025 178.66412169 186.6862715 179 190 C179.10728424 191.04826462 179.21456848 192.09652924 179.32510376 193.17655945 C180.10963299 200.9414094 180.82381285 208.71218831 181.53125 216.484375 C181.7657549 219.02725616 182.00064467 221.57010186 182.23588562 224.11291504 C182.73532637 229.51848509 183.23262525 234.92424468 183.72787476 240.3302002 C184.91039256 253.23651686 186.10473984 266.14174266 187.29820824 279.04705048 C187.57150093 282.00242138 187.84459448 284.95781057 188.11751747 287.91321564 C190.11660644 309.55942107 192.14347072 331.20285228 194.19921875 352.84375 C194.26312695 353.51664346 194.32703515 354.18953691 194.39287996 354.88282108 C195.67915421 368.42511836 196.96943679 381.96703288 198.2618742 395.50874329 C198.70982741 400.20434419 199.15694196 404.90002474 199.60392189 409.59571838 C199.90702217 412.77577607 200.21148212 415.95570146 200.51603699 419.13562012 C205.22295505 468.45870672 205.22295505 468.45870672 193.0625 484.56640625 C187.83439382 490.83079776 182.44460224 494.71785419 175 498 C174.27167969 498.32742188 173.54335938 498.65484375 172.79296875 498.9921875 C161.266995 503.48282662 147.57417395 502.14595528 135.39472961 502.12698364 C133.76118996 502.1281384 132.12765057 502.12972829 130.49411172 502.13171089 C126.04335056 502.13585537 121.59261107 502.13383577 117.14184988 502.13072467 C112.32725151 502.12845082 107.51265672 502.13195999 102.69805908 502.13470459 C93.28212082 502.13913979 83.86619055 502.13819593 74.45025197 502.13529195 C66.7962172 502.13302947 59.14218466 502.13272905 51.48814964 502.13381577 C50.39695476 502.133969 49.30575988 502.13412223 48.18149849 502.13428011 C45.96448801 502.13459985 43.74747753 502.13492406 41.53046706 502.1352527 C20.76662568 502.13810079 0.00278872 502.13483077 -20.76105193 502.12945233 C-38.56637082 502.12498302 -56.37168318 502.12576258 -74.17700195 502.13037109 C-94.87346705 502.13572544 -115.56992827 502.13782815 -136.26639396 502.13475883 C-138.47412829 502.13444029 -140.68186261 502.13412592 -142.88959694 502.13381577 C-143.97574283 502.13366149 -145.06188873 502.13350721 -146.18094813 502.13334826 C-153.82479754 502.13248584 -161.46864449 502.13394005 -169.11249352 502.13629532 C-178.42891119 502.13910297 -187.74532043 502.13833458 -197.06173714 502.13301457 C-201.812452 502.13039091 -206.56315282 502.1293499 -211.31386757 502.13266373 C-215.66670587 502.13565406 -220.01951719 502.13398843 -224.37235305 502.12868617 C-225.94277912 502.12757368 -227.5132075 502.12812713 -229.08363207 502.13056196 C-246.69167851 502.15575758 -261.64947418 501.69324415 -275.5546875 489.53125 C-287.27615324 477.39784776 -289.34344011 464.5947757 -289.18966675 448.49853516 C-288.93632293 436.68486525 -287.63645051 424.93863109 -286.47265625 413.1875 C-286.20336472 410.40132243 -285.93726186 407.61484252 -285.67105103 404.82836914 C-285.10617755 398.9324441 -284.53395861 393.03727261 -283.95639038 387.14257812 C-283.13005665 378.7082417 -282.31622567 370.27273423 -281.50557339 361.83687782 C-280.02969707 346.48124904 -278.54089313 331.12689524 -277.04746014 315.77296543 C-276.94124581 314.68096034 -276.94124581 314.68096034 -276.83288574 313.56689453 C-276.7627234 312.84556052 -276.69256105 312.12422651 -276.62027258 311.3810339 C-274.92580991 293.95679787 -273.24247933 276.53148111 -271.5659132 259.10551453 C-270.98864367 253.10957723 -270.40644985 247.11414615 -269.8198967 241.11911011 C-269.4632082 237.46630889 -269.10991338 233.81318496 -268.75745773 230.15997314 C-268.59685176 228.50320777 -268.43477692 226.84658395 -268.27104568 225.19012451 C-267.50554649 217.44043971 -266.84674596 209.79451102 -267 202 C-266.76691304 200.19977519 -266.48100016 198.40500078 -266.125 196.625 C-265.28615394 192.04947604 -264.72759403 187.51302208 -264.29736328 182.88598633 C-262.95050521 168.48636551 -259.86264413 154.42526326 -248.2578125 144.51171875 C-239.52525936 137.66498934 -230.77250116 133.65140296 -219.5390625 133.8046875 C-218.3532106 133.80893234 -218.3532106 133.80893234 -217.1434021 133.81326294 C-214.63710916 133.82439045 -212.13118355 133.84948074 -209.625 133.875 C-207.91797394 133.88503942 -206.21094223 133.89416359 -204.50390625 133.90234375 C-200.3357976 133.92430537 -196.16796092 133.95878329 -192 134 C-191.86271484 132.28224365 -191.86271484 132.28224365 -191.72265625 130.52978516 C-189.09821195 98.92342601 -177.17786293 68.76503641 -156 45 C-155.20980469 44.07832031 -154.41960937 43.15664063 -153.60546875 42.20703125 C-147.92337734 35.71960405 -141.84867155 30.22814082 -135 25 C-134.12601563 24.32195312 -133.25203125 23.64390625 -132.3515625 22.9453125 C-94.1476469 -5.84766788 -45.55952146 -11.99178461 0 0 Z M-96 50 C-97.03898437 50.50015625 -98.07796875 51.0003125 -99.1484375 51.515625 C-122.36700581 63.84076314 -139.19707536 88.33385427 -147 113 C-149.9715582 123.3531648 -149.9715582 123.3531648 -151 134 C-79.72 134 -8.44 134 65 134 C61.58243564 113.49461386 55.36800222 94.26350067 42 78 C41.42507813 77.29746094 40.85015625 76.59492188 40.2578125 75.87109375 C38.55324657 73.86410484 36.79312083 71.92808691 35 70 C34.36964844 69.29359375 33.73929688 68.5871875 33.08984375 67.859375 C13.01702198 46.39833939 -14.59631204 38.69368737 -43 37 C-61.82504505 37 -79.18589741 41.80368546 -96 50 Z M-187.94921875 200.640625 C-189.42411874 203.95229636 -189.66069007 207.17792889 -189.8125 210.75 C-189.84601563 211.46502686 -189.87953125 212.18005371 -189.9140625 212.91674805 C-190.09417948 218.11466335 -190.22310959 222.27589212 -188 227 C-183.67342853 229.91573294 -179.8978956 230.17709768 -174.7421875 230.56640625 C-173.12739502 230.6912439 -173.12739502 230.6912439 -171.47998047 230.81860352 C-170.25239014 230.90839478 -170.25239014 230.90839478 -169 231 C-169.05819916 232.19410995 -169.11639832 233.38821991 -169.17636108 234.61851501 C-169.736957 246.12589719 -170.29545703 257.63337962 -170.8521328 269.14095211 C-171.13807377 275.05064048 -171.42464159 280.96029676 -171.71289062 286.86987305 C-173.02798559 313.84131364 -174.28556448 340.81285874 -175.33456421 367.79612732 C-175.78121259 379.20482949 -176.32442273 390.60248375 -177 402 C-180.48307292 402.16276042 -183.96614583 402.32552083 -187.44921875 402.48828125 C-191.12120728 403.01746772 -193.06811511 403.77599362 -196 406 C-198.63762582 409.95643874 -198.55442548 413.0971782 -198.8125 417.75 C-198.87630859 418.53632812 -198.94011719 419.32265625 -199.00585938 420.1328125 C-199.32626991 425.5662532 -198.97185931 429.35460869 -196 434 C-191.12584596 435.81737632 -186.81563991 436.23710831 -181.64355469 436.18286133 C-180.9450943 436.17821869 -180.24663391 436.17357605 -179.52700806 436.16879272 C-177.24171389 436.15056175 -174.95696938 436.11703312 -172.671875 436.08203125 C-171.07481434 436.06345288 -169.47774786 436.04536881 -167.88067627 436.02775574 C-164.54531374 435.98838633 -161.21017868 435.94105381 -157.875 435.88842773 C-153.59894717 435.8218855 -149.32300763 435.77839588 -145.04661179 435.74116993 C-141.7539577 435.70946212 -138.46159863 435.66408024 -135.16916656 435.61469078 C-133.59194819 435.59297709 -132.01465906 435.57589341 -130.43733978 435.56351662 C-128.23736753 435.54451472 -126.03849085 435.50675248 -123.83886719 435.46411133 C-121.96192169 435.43840813 -121.96192169 435.43840813 -120.04705811 435.41218567 C-117.03658903 435.24792873 -117.03658903 435.24792873 -115.1350708 433.65849304 C-112.50196558 429.81116767 -112.81657451 425.71566666 -112.8125 421.25 C-112.80025391 420.5590625 -112.78800781 419.868125 -112.77539062 419.15625 C-112.76219813 414.47731198 -113.12588551 410.3604039 -115 406 C-119.61452179 402.59871874 -124.34664018 402.47647677 -129.875 402.3125 C-130.65875 402.27833984 -131.4425 402.24417969 -132.25 402.20898438 C-134.16618748 402.12719588 -136.08306715 402.0619054 -138 402 C-137.34 401.67 -136.68 401.34 -136 401 C-135.54638305 398.82470155 -135.54638305 398.82470155 -135.41078186 396.19255066 C-135.30047732 394.69067986 -135.30047732 394.69067986 -135.18794441 393.15846825 C-134.88575154 388.08001671 -134.63371071 383.00244849 -134.42749023 377.91918945 C-134.35411942 376.19039803 -134.35411942 376.19039803 -134.27926636 374.42668152 C-134.1198458 370.65564964 -133.96419008 366.88447268 -133.80859375 363.11328125 C-133.69815509 360.48340389 -133.58747952 357.85353646 -133.47657776 355.22367859 C-133.2159301 349.03342226 -132.95799676 342.84305601 -132.70106798 336.65264434 C-132.40813608 329.59802044 -132.11213344 322.54352639 -131.81588829 315.48904097 C-131.20720458 300.99283491 -130.60232694 286.49647157 -130 272 C-129.5421814 273.12454086 -129.08436279 274.24908173 -128.6126709 275.40769958 C-123.99154965 286.72932897 -123.99154965 286.72932897 -118.90625 297.84765625 C-118.38299385 298.94618675 -118.38299385 298.94618675 -117.84916687 300.06690979 C-117.11374075 301.60968299 -116.37636595 303.15152878 -115.63705444 304.69244385 C-114.05685256 307.98618867 -112.48689976 311.28478974 -110.9160614 314.58300781 C-110.11132171 316.27237717 -109.30607627 317.96150569 -108.50032043 319.65039062 C-104.69585034 327.62626706 -100.93395064 335.62173599 -97.1875 343.625 C-96.72866425 344.60468246 -96.72866425 344.60468246 -96.26055908 345.60415649 C-91.94889075 354.81178999 -87.65688311 364.02847657 -83.375 373.25 C-82.85333252 374.37148438 -82.33166504 375.49296875 -81.79418945 376.6484375 C-79.28140418 382.05639687 -76.78151654 387.46959915 -74.3152771 392.89892578 C-73.12676674 395.51319371 -71.93198958 398.12457431 -70.7366333 400.73571777 C-70.16702357 401.98468707 -69.60051903 403.2350777 -69.03729248 404.48693848 C-68.25913546 406.21613737 -67.46967125 407.94023454 -66.6796875 409.6640625 C-66.23351074 410.64842285 -65.78733398 411.6327832 -65.32763672 412.64697266 C-64.07936697 415.27359028 -64.07936697 415.27359028 -61 417 C-57.56871208 417.57443265 -54.09779708 417.65059257 -50.625 417.8125 C-49.67882812 417.87630859 -48.73265625 417.94011719 -47.7578125 418.00585938 C-46.84 418.05162109 -45.9221875 418.09738281 -44.9765625 418.14453125 C-44.14205566 418.18940674 -43.30754883 418.23428223 -42.44775391 418.28051758 C-39.19138375 417.90733093 -37.56919254 417.0474641 -35 415 C-33.66960349 412.72228828 -32.62134197 410.6508314 -31.609375 408.2421875 C-31.31528748 407.57782684 -31.02119995 406.91346619 -30.71820068 406.22897339 C-30.10433464 404.84107297 -29.49642068 403.45052571 -28.89428711 402.05749512 C-27.78559672 399.50672027 -26.63107537 396.97854889 -25.47251892 394.45013428 C-24.05227188 391.34752009 -22.65267698 388.23558642 -21.25 385.125 C-20.95141083 384.4637915 -20.65282166 383.80258301 -20.34518433 383.12133789 C-16.1985536 373.93693324 -12.10520468 364.73072395 -8.0625 355.5 C-3.57548157 345.25862507 1.07293667 335.11785355 5.8984375 325.03125 C11.03034026 314.2826362 16.00698966 303.46712759 20.9375 292.625 C21.27241455 291.88936829 21.6073291 291.15373657 21.95239258 290.39581299 C22.91629379 288.27753658 23.87841789 286.15846339 24.83984375 284.0390625 C25.12907211 283.40331299 25.41830048 282.76756348 25.71629333 282.11254883 C28.84194644 275.79377476 28.84194644 275.79377476 30 269 C30.66 269 31.32 269 32 269 C31.98771866 270.22009766 31.97543732 271.44019531 31.96278381 272.69726562 C31.86512567 286.99304516 32.37961851 301.22251258 33.05859375 315.5 C33.16861223 317.87938009 33.27831165 320.25877494 33.38771057 322.63818359 C33.61581882 327.57632163 33.84727257 332.51428742 34.08129883 337.45214844 C34.38093795 343.77884381 34.67270094 350.10587385 34.96211147 356.43304443 C35.18659528 361.32472101 35.41481385 366.21621769 35.64421272 371.10766602 C35.75332611 373.44241362 35.86136149 375.77721187 35.96829033 378.11206055 C36.11760873 381.35875081 36.27186867 384.60516908 36.42749023 387.8515625 C36.47064865 388.81047394 36.51380707 389.76938538 36.55827332 390.75735474 C36.76290096 394.926892 36.98742474 398.93039468 38 403 C36.81921875 402.97679687 35.6384375 402.95359375 34.421875 402.9296875 C32.86458967 402.91092503 31.30729748 402.89272534 29.75 402.875 C28.58404297 402.84986328 28.58404297 402.84986328 27.39453125 402.82421875 C21.87680987 402.6853032 21.87680987 402.6853032 17 405 C12.63282303 411.55076546 13.24594818 421.40562094 14 429 C15.75726763 432.7217221 15.75726763 432.7217221 19 435 C21.8214747 435.11416864 24.61882779 435.16785488 27.44116211 435.17700195 C28.31445663 435.18357315 29.18775116 435.19014435 30.08750916 435.19691467 C32.98412149 435.21666401 35.88068202 435.22831215 38.77734375 435.23828125 C39.76469576 435.24235678 40.75204777 435.2464323 41.76931953 435.25063133 C46.99228838 435.27149622 52.2152309 435.28579774 57.43823242 435.29516602 C62.84354042 435.30624851 68.24843879 435.34066839 73.65360165 435.38033772 C77.80136402 435.40642605 81.94902749 435.41485077 86.0968647 435.41844749 C88.09004047 435.42333141 90.0832113 435.43499633 92.0763073 435.45348549 C94.86102106 435.47771815 97.64465744 435.47694152 100.42944336 435.4699707 C101.25708191 435.48278076 102.08472046 435.49559082 102.93743896 435.50878906 C107.38158123 435.51486421 107.38158123 435.51486421 110.97315979 433.15812683 C114.22442026 426.32489964 114.2579103 416.45873158 112.2109375 409.203125 C111.14679191 406.8183895 111.14679191 406.8183895 109 404 C105.43913342 402.81304447 102.02668976 402.64904582 98.3125 402.4375 C97.2596582 402.37272461 97.2596582 402.37272461 96.18554688 402.30664062 C94.45724794 402.2008264 92.7286489 402.09993419 91 402 C90.94695457 400.82633881 90.94695457 400.82633881 90.89283752 399.62896729 C90.55515213 392.15937303 90.21700015 384.6898001 89.87835789 377.22024918 C89.70438483 373.38252096 89.53057586 369.54478549 89.35717773 365.70703125 C88.99667718 357.73046543 88.63388262 349.75401561 88.26517677 341.7778244 C88.07633882 337.6860862 87.89373594 333.59411549 87.71435547 329.50195312 C87.63139669 327.68358407 87.54824556 325.86522378 87.46484375 324.046875 C87.41487999 322.85097748 87.41487999 322.85097748 87.36390686 321.63092041 C87.21735334 318.53043913 86.98754713 315.9626414 86 313 C85.96522043 310.44502468 85.98373472 307.90912596 86.03125 305.35546875 C86.11171474 296.34358467 85.77633066 287.36260988 85.34375 278.36328125 C85.31069763 277.67456814 85.27764526 276.98585503 85.24359131 276.27627182 C85.03747319 272.01423274 84.82434538 267.7525642 84.60931396 263.4909668 C84.42492729 259.8164111 84.24592416 256.14159308 84.06640625 252.46679688 C83.71607021 245.31093767 83.35997552 238.15538148 83 231 C84.02480469 230.91363281 85.04960938 230.82726562 86.10546875 230.73828125 C87.46626581 230.59750914 88.82693708 230.45551731 90.1875 230.3125 C91.19780273 230.23225586 91.19780273 230.23225586 92.22851562 230.15039062 C97.39445509 229.57079742 99.7626059 228.00353896 103 224 C104.07578806 221.05007589 104 218.12649817 104 215 C104 213.98550781 104 212.97101563 104 211.92578125 C103.88928428 205.67557753 103.88928428 205.67557753 100.87084961 200.37548828 C97.41732438 197.51786429 95.75469705 197.32283023 91.32421875 197.1953125 C90.67547287 197.17131378 90.02672699 197.14731506 89.35832214 197.12258911 C87.23853589 197.05372114 85.12074474 197.02349823 83 197 C82.28378479 196.98690796 81.56756958 196.97381592 80.82965088 196.96032715 C75.49013256 196.8643872 70.15271453 196.85494793 64.8125 196.875 C64.00483185 196.87754791 63.1971637 196.88009583 62.36502075 196.88272095 C57.60641053 196.90032646 52.84813165 196.93364426 48.08972168 196.98040771 C46.1981932 196.99814183 44.30661515 197.01037896 42.41503906 197.02197266 C39.58749575 197.04803093 36.76395028 197.10749842 33.9375 197.1875 C33.16059814 197.19313965 32.38369629 197.1987793 31.58325195 197.20458984 C28.13896603 197.34828369 26.42160737 197.55880808 23.99755859 200.09545898 C21.78488921 203.31278086 20.1399813 206.62056638 18.57421875 210.1796875 C18.26353958 210.86950714 17.95286041 211.55932678 17.63276672 212.27005005 C16.64417064 214.46870854 15.66551689 216.67161822 14.6875 218.875 C13.72243687 221.03188576 12.75530726 223.18783663 11.78804016 225.34373474 C11.14283348 226.78196391 10.49829739 228.22049409 9.85441589 229.65931702 C6.64966311 236.8107353 3.33914623 243.91053505 0 251 C-0.30304047 251.64388672 -0.60608093 252.28777344 -0.91830444 252.95117188 C-2.50910371 256.33060237 -4.10157306 259.70924235 -5.69506836 263.08740234 C-16.00785998 284.9522965 -26.19210591 306.87109702 -36.07324219 328.93505859 C-38.03134678 333.29797972 -40.01595008 337.64883014 -42 342 C-47.08478231 332.72605045 -51.79522639 323.37442039 -56.09732056 313.71304321 C-57.70176153 310.11280113 -59.32611827 306.5215467 -60.94921875 302.9296875 C-61.28370529 302.18880386 -61.61819183 301.44792023 -61.96281433 300.68458557 C-65.50337797 292.85807367 -69.14593073 285.08062249 -72.8125 277.3125 C-73.13866302 276.62130066 -73.46482605 275.93010132 -73.8008728 275.21795654 C-75.83725233 270.90455775 -77.87769469 266.59309061 -79.91943359 262.28222656 C-81.04082209 259.91378109 -82.16117986 257.54485046 -83.28125 255.17578125 C-87.48671417 246.28097472 -91.69802071 237.38898577 -95.91841125 228.50125122 C-98.12731062 223.84713994 -100.32337382 219.18724837 -102.51171875 214.5234375 C-103.50776338 212.41143517 -104.50385292 210.29945401 -105.5 208.1875 C-105.93868408 207.24495361 -106.37736816 206.30240723 -106.8293457 205.33129883 C-107.22597412 204.4936499 -107.62260254 203.65600098 -108.03125 202.79296875 C-108.36705078 202.0764917 -108.70285156 201.36001465 -109.04882812 200.62182617 C-109.9082568 198.81866981 -109.9082568 198.81866981 -112 198 C-114.88568082 197.76065824 -117.7494876 197.5808548 -120.640625 197.44921875 C-121.52590881 197.40737961 -122.41119263 197.36554047 -123.32330322 197.32243347 C-133.12109168 196.89695968 -142.91676655 196.8139003 -152.72265625 196.81469727 C-155.78919604 196.81247155 -158.85539649 196.79410645 -161.921875 196.77539062 C-163.90104046 196.77246216 -165.88020759 196.77047371 -167.859375 196.76953125 C-168.76153748 196.76234573 -169.66369995 196.75516022 -170.59320068 196.74775696 C-179.85926719 196.73100497 -179.85926719 196.73100497 -187.94921875 200.640625 Z " fill="#09489D" transform="translate(555,253)"/>
<path d="M0 0 C0.33 0 0.66 0 1 0 C4.38949642 13.40666889 4.22845577 27.09396266 -2.125 39.625 C-7.89305691 49.08392667 -14.86969808 55.5337939 -25 60 C-25.72832031 60.32742188 -26.45664062 60.65484375 -27.20703125 60.9921875 C-38.733005 65.48282662 -52.42582605 64.14595528 -64.60527039 64.12698364 C-66.23881004 64.1281384 -67.87234943 64.12972829 -69.50588828 64.13171089 C-73.95664944 64.13585537 -78.40738893 64.13383577 -82.85815012 64.13072467 C-87.67274849 64.12845082 -92.48734328 64.13195999 -97.30194092 64.13470459 C-106.71787918 64.13913979 -116.13380945 64.13819593 -125.54974803 64.13529195 C-133.2037828 64.13302947 -140.85781534 64.13272905 -148.51185036 64.13381577 C-149.60304524 64.133969 -150.69424012 64.13412223 -151.81850151 64.13428011 C-154.03551199 64.13459985 -156.25252247 64.13492406 -158.46953294 64.1352527 C-179.23337432 64.13810079 -199.99721128 64.13483077 -220.76105193 64.12945233 C-238.56637082 64.12498302 -256.37168318 64.12576258 -274.17700195 64.13037109 C-294.87346705 64.13572544 -315.56992827 64.13782815 -336.26639396 64.13475883 C-338.47412829 64.13444029 -340.68186261 64.13412592 -342.88959694 64.13381577 C-343.97574283 64.13366149 -345.06188873 64.13350721 -346.18094813 64.13334826 C-353.82479754 64.13248584 -361.46864449 64.13394005 -369.11249352 64.13629532 C-378.42891119 64.13910297 -387.74532043 64.13833458 -397.06173714 64.13301457 C-401.812452 64.13039091 -406.56315282 64.1293499 -411.31386757 64.13266373 C-415.66670587 64.13565406 -420.01951719 64.13398843 -424.37235305 64.12868617 C-425.94277912 64.12757368 -427.5132075 64.12812713 -429.08363207 64.13056196 C-446.69167851 64.15575758 -461.64947418 63.69324415 -475.5546875 51.53125 C-479.49711095 47.45027493 -482.3295132 42.98338705 -485 38 C-485.35964844 37.37222656 -485.71929687 36.74445312 -486.08984375 36.09765625 C-488.57979899 31.22101581 -488.28881387 26.31631454 -488 21 C-487.67 21 -487.34 21 -487 21 C-486.86464844 21.79921875 -486.72929687 22.5984375 -486.58984375 23.421875 C-483.85515723 37.37368886 -477.75366484 47.11263413 -466.15234375 55.3046875 C-459.72121883 59.31864702 -452.91300855 60.24901064 -445.48704815 60.25726891 C-444.77199601 60.26077498 -444.05694387 60.26428105 -443.32022348 60.26789337 C-440.93579004 60.27716134 -438.55160332 60.27229607 -436.16716003 60.26742554 C-434.43567705 60.27116411 -432.70419574 60.27576646 -430.97271711 60.28115618 C-426.22334824 60.2933758 -421.47404986 60.29312694 -416.72466886 60.29076743 C-411.59911413 60.29035901 -406.47358193 60.30140081 -401.34803772 60.31088257 C-391.30963636 60.32748749 -381.2712585 60.33299187 -371.23284455 60.33410732 C-363.07284728 60.33505797 -354.91285775 60.33916909 -346.75286293 60.34550858 C-323.61408455 60.36311903 -300.47532472 60.37234767 -277.33653959 60.37084763 C-276.08941463 60.37076772 -274.84228967 60.3706878 -273.55737305 60.37060547 C-271.68439988 60.37048283 -271.68439988 60.37048283 -269.77358887 60.37035771 C-249.53480238 60.3695447 -229.29609029 60.38868659 -209.05732533 60.4168822 C-188.27269555 60.44560968 -167.48810207 60.45942259 -146.70345193 60.45769465 C-135.03586803 60.45703074 -123.36836214 60.46252373 -111.70079613 60.48405075 C-101.76752853 60.50226064 -91.83437432 60.50661136 -81.90109726 60.4930319 C-76.83440784 60.48650154 -71.76793597 60.4863877 -66.70126724 60.5037384 C-62.05940019 60.51947075 -57.41792317 60.51660375 -52.77606563 60.49917014 C-51.10047908 60.49610064 -49.42486342 60.49973075 -47.74931123 60.51089029 C-32.58015641 60.60519658 -22.31338311 57.6937427 -11.0625 47.19140625 C-1.20758962 36.97543234 0.17075439 24.64847207 0.0625 11.125 C0.05573242 9.52011719 0.05573242 9.52011719 0.04882812 7.8828125 C0.03709749 5.25515014 0.02068228 2.62760462 0 0 Z " fill="#0E3B84" transform="translate(755,691)"/>
<path d="M0 0 C0.33 0 0.66 0 1 0 C1 2.31 1 4.62 1 7 C2.10620886 6.99815641 3.21241772 6.99631283 4.35214806 6.99441338 C31.23273492 6.95007126 58.11331705 6.91717561 84.99393272 6.89637566 C97.99303866 6.88605035 110.99212048 6.87196614 123.99121094 6.84912109 C135.31738667 6.82922552 146.64354493 6.81629269 157.96973765 6.81182301 C163.97031923 6.80920912 169.97085086 6.80303945 175.97141647 6.78853989 C181.61345445 6.77501646 187.25542164 6.77076669 192.89747429 6.77378464 C194.97361192 6.77323212 197.0497518 6.76922362 199.12587547 6.76158905 C201.94975861 6.7517097 204.77337075 6.75400529 207.59725952 6.75949097 C208.42798772 6.75366528 209.25871592 6.7478396 210.11461771 6.74183738 C215.77175758 6.77175758 215.77175758 6.77175758 218 9 C146.06 9 74.12 9 0 9 C-1.125 3.375 -1.125 3.375 0 0 Z " fill="#072568" transform="translate(403,380)"/>
<path d="M0 0 C1.36756898 -0.01179078 2.73510388 -0.02879878 4.10253906 -0.05126953 C17.49620531 -0.26077755 17.49620531 -0.26077755 23.25463867 3.23217773 C28.29580388 10.6258867 28.03120435 20.49512709 26.62963867 29.04467773 C24.88768423 33.08284484 23.1358622 34.25351476 19.25463867 36.23217773 C14.98745558 37.57970924 10.69000639 37.25024441 6.25463867 37.23217773 C6.28493164 37.78454102 6.31522461 38.3369043 6.34643555 38.90600586 C6.9813033 50.6950116 7.40494111 62.42508654 7.25463867 74.23217773 C6.92463867 74.23217773 6.59463867 74.23217773 6.25463867 74.23217773 C4.97405855 64.7459386 4.03943132 55.29548773 3.56713867 45.73217773 C3.51887939 44.80638916 3.47062012 43.88060059 3.42089844 42.92675781 C3.36373657 41.63934692 3.36373657 41.63934692 3.30541992 40.32592773 C3.27101807 39.55958008 3.23661621 38.79323242 3.20117188 38.00366211 C3.25463867 36.23217773 3.25463867 36.23217773 4.25463867 35.23217773 C7.37366731 34.85217545 10.48906026 34.51097077 13.61987305 34.24584961 C16.92124194 33.88118227 19.00680076 33.4182554 21.68432617 31.40795898 C25.77138969 25.74503764 24.27166166 17.55828433 23.89916992 10.93139648 C23.07682516 7.48751632 22.02853679 6.4157036 19.25463867 4.23217773 C16.03868613 3.52692102 16.03868613 3.52692102 12.43432617 3.48217773 C11.77447723 3.45325439 11.1146283 3.42433105 10.43478394 3.39453125 C3.41922414 3.12046886 -3.60122728 3.16361476 -10.62036133 3.23217773 C-24.34968585 3.31814272 -38.03294487 2.93033191 -51.74536133 2.23217773 C-51.74536133 1.90217773 -51.74536133 1.57217773 -51.74536133 1.23217773 C-34.50259138 0.66624883 -17.25250529 0.12572676 0 0 Z " fill="#0D3277" transform="translate(633.745361328125,447.767822265625)"/>
<path d="M0 0 C0.33 0 0.66 0 1 0 C1.66 7.59 2.32 15.18 3 23 C8.91635687 24.69038768 13.51435042 25.35803228 19.5234375 25.65625 C20.34070313 25.7696875 21.15796875 25.883125 22 26 C23.17074889 28.34149779 23.06391333 29.50144023 22.93716431 32.09695435 C22.89791336 32.95480026 22.85866241 33.81264618 22.81822205 34.69648743 C22.76944412 35.63985458 22.7206662 36.58322174 22.67041016 37.55517578 C22.62339462 38.54723526 22.57637909 39.53929474 22.52793884 40.56141663 C22.37035402 43.85633294 22.20484672 47.15079932 22.0390625 50.4453125 C21.9275377 52.73255548 21.81640808 55.01981776 21.70565796 57.30709839 C21.4718928 62.11083134 21.23440945 66.91436148 20.99414062 71.71777344 C20.6868329 77.86423207 20.38696918 84.01102469 20.0897007 90.15797615 C19.86047054 94.88680868 19.62810836 99.61548313 19.3947258 104.3441124 C19.28313445 106.60940692 19.17231027 108.87473938 19.06227493 111.14011002 C18.90735123 114.31638549 18.7484202 117.49243581 18.58837891 120.66845703 C18.54364944 121.5996788 18.49891998 122.53090057 18.45283508 123.49034119 C18.18525814 128.7045048 17.71431662 133.82754576 17 139 C16.67 139 16.34 139 16 139 C15.72815306 118.73276535 16.31663379 98.65794745 17.56463623 78.4324646 C18.19516543 68.04392947 18.65235013 57.64667914 19.125 47.25 C19.21335164 45.31990435 19.30172984 43.38980992 19.39013672 41.4597168 C19.59513659 36.97322078 19.79818554 32.48664039 20 28 C18.98570923 28.02175293 18.98570923 28.02175293 17.95092773 28.04394531 C16.61203491 28.06086426 16.61203491 28.06086426 15.24609375 28.078125 C14.3636499 28.09262695 13.48120605 28.10712891 12.57202148 28.12207031 C7.90382305 27.90051367 4.37798045 26.46984581 1.125 23 C-2.58878519 16.39771522 -1.59457501 7.17558757 0 0 Z " fill="#093177" transform="translate(364,457)"/>
<path d="M0 0 C3.4370439 1.71852195 4.28017799 5.78595906 5.75 9.1875 C6.56440374 11.03343686 7.38094448 12.87843187 8.19921875 14.72265625 C8.87090088 16.23690186 8.87090088 16.23690186 9.55615234 17.78173828 C12.16271721 23.59163649 14.86354 29.35760021 17.5625 35.125 C17.85546967 35.75173615 18.14843933 36.37847229 18.45028687 37.02420044 C23.63915619 48.12345107 28.86093945 59.20720721 34.08294678 70.29089355 C39.17210394 81.09402617 44.23576335 91.90839698 49.24682617 102.74804688 C51.73880232 108.138389 54.24147246 113.52288079 56.78334045 118.88986206 C58.02018219 121.5026307 59.25132301 124.1180672 60.48208618 126.73370361 C61.07346342 127.98631009 61.66764679 129.2375959 62.26473999 130.48748779 C63.08719946 132.20965864 63.89934135 133.9367456 64.7109375 135.6640625 C65.17806152 136.64842285 65.64518555 137.6327832 66.12646484 138.64697266 C66.41473145 139.42347168 66.70299805 140.1999707 67 141 C66.67 141.66 66.34 142.32 66 143 C61.07844926 135.66463525 57.45827676 127.7999374 53.75 119.8125 C53.04508551 118.30420939 52.33983718 116.79607477 51.63427734 115.28808594 C46.22306962 103.70435635 40.89563618 92.08209872 35.57537842 80.45639038 C28.86899301 65.80618954 21.99884711 51.23645772 15.07516479 36.68786621 C13.71397591 33.82590565 12.35629798 30.96228418 10.99841309 28.09875488 C9.97852801 25.95486393 8.95087083 23.81480519 7.92285156 21.67480469 C7.2738513 20.31196191 6.62507794 18.94901105 5.9765625 17.5859375 C5.52402603 16.65208725 5.52402603 16.65208725 5.06234741 15.69937134 C3.74733732 12.92006293 3 11.11978756 3 8 C2.01 8 1.02 8 0 8 C0 5.36 0 2.72 0 0 Z " fill="#0A3176" transform="translate(425,527)"/>
<path d="M0 0 C12.68138091 1.83427117 26.81629009 15.45701404 36 24 C36 24.66 36 25.32 36 26 C36.55558594 26.2165625 37.11117187 26.433125 37.68359375 26.65625 C58.71351667 38.85573311 70.17721156 74.10832607 76 96 C77.09704489 100.13337285 77.07132506 103.72049613 77 108 C75.19020261 105.28530391 74.60399762 103.95007151 73.921875 100.89453125 C73.73399414 100.08411377 73.54611328 99.27369629 73.35253906 98.4387207 C73.15370117 97.57206787 72.95486328 96.70541504 72.75 95.8125 C63.66850561 58.25519054 41.90693651 27.49753587 9.19140625 6.875 C6.18283581 5.10741884 3.14156049 3.51628862 0 2 C0 1.34 0 0.68 0 0 Z " fill="#0A3379" transform="translate(581,265)"/>
<path d="M0 0 C1.28175613 -0.0127597 2.56351227 -0.02551941 3.8841095 -0.03866577 C5.28561248 -0.04172373 6.68711749 -0.04395133 8.08862305 -0.04541016 C9.52727898 -0.05183834 10.9659336 -0.05856671 12.40458679 -0.06558228 C15.4216108 -0.07755953 18.4385203 -0.08126278 21.45556641 -0.08007812 C25.31256461 -0.07987519 29.16882386 -0.10714791 33.02564716 -0.14162254 C35.99831988 -0.16391741 38.97081571 -0.16791485 41.94356346 -0.16685867 C43.36487557 -0.16921188 44.78619276 -0.1780197 46.20742226 -0.19352341 C48.20068421 -0.21322675 50.1941633 -0.20481172 52.1875 -0.1953125 C53.31984573 -0.19816254 54.45219147 -0.20101257 55.61885071 -0.20394897 C59.5482497 0.40917826 61.70051835 1.82356652 64.7878418 4.29052734 C66.26215654 6.6325982 67.41237433 8.73361379 68.5378418 11.22802734 C68.86075195 11.90736328 69.18366211 12.58669922 69.51635742 13.28662109 C70.22649217 14.78445709 70.929271 16.28579656 71.62573242 17.79003906 C72.90427964 20.54106439 74.21090655 23.27762947 75.5222168 26.01318359 C77.95876813 31.09873643 80.3784199 36.19207164 82.7878418 41.29052734 C81.3028418 41.78552734 81.3028418 41.78552734 79.7878418 42.29052734 C79.41498047 41.48421875 79.04211914 40.67791016 78.65795898 39.84716797 C77.25740411 36.82002205 75.85574654 33.79339163 74.45336914 30.76708984 C73.84974493 29.46390541 73.24654497 28.16052438 72.64379883 26.85693359 C71.77108844 24.96967928 70.89707102 23.08303875 70.0222168 21.19677734 C69.74019409 20.58825928 69.45817139 19.97974121 69.16760254 19.3527832 C67.62528488 16.03975708 66.03306455 12.76114704 64.3659668 9.50927734 C62.7878418 6.29052734 62.7878418 6.29052734 62.7878418 4.29052734 C46.29248825 3.20886482 29.83640004 3.21577368 13.3137207 3.32763672 C12.41729858 3.33186646 11.52087646 3.33609619 10.59729004 3.3404541 C8.91000655 3.34856945 7.22273556 3.36087766 5.53552246 3.3782959 C0.52704572 3.39952159 -4.25386582 3.00864923 -9.2121582 2.29052734 C-5.6820425 -0.06288313 -4.18348742 0.02822511 0 0 Z " fill="#0D3881" transform="translate(382.212158203125,447.70947265625)"/>
<path d="M0 0 C0.66 0 1.32 0 2 0 C1.67 2.31 1.34 4.62 1 7 C-0.54941284 7.02187378 -0.54941284 7.02187378 -2.13012695 7.04418945 C-6.01261678 7.10276131 -9.89456174 7.17998257 -13.77661133 7.26245117 C-15.44741889 7.29542658 -17.11833054 7.32354095 -18.78930664 7.34643555 C-34.05784337 7.56122789 -46.07860923 8.76666989 -57.74609375 19.625 C-62.18548454 24.42184823 -65.04984413 30.21476525 -68 36 C-68.66796875 34.30859375 -68.66796875 34.30859375 -69 32 C-63.19538796 19.0187767 -53.31564218 11.13284462 -40.40039062 5.95849609 C-36.38976186 4.82798715 -32.66548797 4.74838086 -28.5390625 4.8046875 C-27.74849457 4.8075174 -26.95792664 4.81034729 -26.1434021 4.81326294 C-23.63710916 4.82439045 -21.13118355 4.84948074 -18.625 4.875 C-16.91797394 4.88503942 -15.21094223 4.89416359 -13.50390625 4.90234375 C-9.3357976 4.92430537 -5.16796092 4.95878329 -1 5 C-0.67 3.35 -0.34 1.7 0 0 Z " fill="#0B3175" transform="translate(364,382)"/>
<path d="M0 0 C2.20770805 -0.08165496 4.41630425 -0.13948488 6.625 -0.1875 C7.85476563 -0.22230469 9.08453125 -0.25710938 10.3515625 -0.29296875 C15.05672312 0.08485464 18.40625511 1.46121183 21.8125 4.75 C25.37229034 11.4948659 25.05415639 22.06123581 23.50390625 29.32421875 C22.4564724 32.1469642 21.49858798 33.73255332 18.82380676 35.16732788 C15.41577406 36.17227406 12.56065563 36.19929109 9.0065918 36.13525391 C8.32311172 36.12579239 7.63963165 36.11633087 6.93544006 36.10658264 C4.68975125 36.07306513 2.44463312 36.02490772 0.19921875 35.9765625 C-1.36303746 35.95037877 -2.92530931 35.9251131 -4.4875946 35.90072632 C-8.58948631 35.83423783 -12.69104722 35.75531036 -16.79266357 35.67376709 C-20.98208976 35.59268797 -25.17170936 35.52340699 -29.36132812 35.453125 C-37.57445352 35.31361225 -45.78726695 35.16095438 -54 35 C-54 34.67 -54 34.34 -54 34 C-52.65696053 33.99786247 -52.65696053 33.99786247 -51.28678894 33.99568176 C-42.85511111 33.97786358 -34.42395915 33.93628571 -25.99253368 33.86790943 C-21.6576309 33.83359572 -17.32308215 33.80852273 -12.98803711 33.80444336 C-8.80558733 33.80016966 -4.62393679 33.77178558 -0.44173622 33.72656822 C1.15502965 33.71356322 2.75189103 33.70929617 4.34870338 33.71384621 C6.58336656 33.71873149 8.81567492 33.69275907 11.05004883 33.65942383 C12.32245926 33.65276199 13.59486969 33.64610016 14.90583801 33.63923645 C18.15310945 33.30421574 18.15310945 33.30421574 19.91386414 30.69267273 C21.34592356 27.1424103 21.36249434 23.88652942 21.25 20.125 C21.24226563 19.10212891 21.24226563 19.10212891 21.234375 18.05859375 C21.16686077 13.62797228 20.70788178 9.37288259 20 5 C19.030625 4.690625 18.06125 4.38125 17.0625 4.0625 C14 3 14 3 13 2 C10.81707226 1.76518307 8.62796826 1.58636677 6.4375 1.4375 C5.23996094 1.35371094 4.04242188 1.26992188 2.80859375 1.18359375 C1.88175781 1.12300781 0.95492187 1.06242188 0 1 C0 0.67 0 0.34 0 0 Z " fill="#13509C" transform="translate(420,654)"/>
<path d="M0 0 C3.09781171 1.54890585 3.81376688 4.5724786 5.16015625 7.61328125 C5.46615753 8.2907843 5.77215881 8.96828735 6.08743286 9.6663208 C7.08513134 11.87906505 8.0737979 14.09572332 9.0625 16.3125 C9.74394574 17.82766338 10.42599457 19.34255565 11.10864258 20.85717773 C12.77996609 24.56904368 14.4444352 28.28392724 16.10583496 32.00024414 C17.7581036 35.69546119 19.41542491 39.38840921 21.07397461 43.08081055 C21.78809703 44.67235943 22.50004528 46.26488669 23.20922852 47.85864258 C25.34659188 52.64117679 27.62991181 57.32814103 30 62 C30.45375 61.38125 30.9075 60.7625 31.375 60.125 C33 58 33 58 35 56 C34.45660208 60.56454251 33.20536179 63.9728176 31 68 C28.80323296 65.22465567 27.1388493 62.4897037 25.609375 59.30078125 C24.92645386 57.88116089 24.92645386 57.88116089 24.22973633 56.43286133 C23.74142334 55.40314209 23.25311035 54.37342285 22.75 53.3125 C22.23783936 52.23701904 21.72567871 51.16153809 21.19799805 50.0534668 C17.01872602 41.23374023 12.8974941 32.38647214 8.82556152 23.51669312 C8.15326188 22.05392091 7.47872047 20.59217685 6.80187988 19.13150024 C5.84625539 17.06620297 4.90040706 14.99669679 3.95703125 12.92578125 C3.13682495 11.13781128 3.13682495 11.13781128 2.30004883 9.3137207 C1.06428285 6.16385186 0.41104138 3.34786993 0 0 Z " fill="#0C3174" transform="translate(482,528)"/>
<path d="M0 0 C0.33 0 0.66 0 1 0 C1.66 7.59 2.32 15.18 3 23 C8.91635687 24.69038768 13.51435042 25.35803228 19.5234375 25.65625 C20.34070313 25.7696875 21.15796875 25.883125 22 26 C23.72236365 29.4447273 22.86814272 33.39418192 22.66015625 37.1640625 C22.59144569 38.52487442 22.59144569 38.52487442 22.52134705 39.91317749 C22.37352206 42.81740819 22.21809624 45.72117627 22.0625 48.625 C21.96108857 50.59112011 21.86017076 52.55726575 21.75976562 54.5234375 C21.51224223 59.34927345 21.25790028 64.17470793 21 69 C20.67 69 20.34 69 20 69 C19.18828313 55.23578513 18.88419337 41.75017095 20 28 C19.35933594 28.03480469 18.71867187 28.06960938 18.05859375 28.10546875 C12.18113512 28.28941306 8.13965788 27.93694736 3 25 C-1.5194327 20.17927179 -1.14717968 15.23720642 -1.1015625 8.96484375 C-0.99664835 5.90215746 -0.66515567 2.9932005 0 0 Z " fill="#083177" transform="translate(364,457)"/>
<path d="M0 0 C0 0.66 0 1.32 0 2 C-1.6550995 2.97395055 -3.3525706 3.87588589 -5.0625 4.75 C-22.14551193 14.43374286 -33.81666993 30.04991738 -43 47 C-43.66 47 -44.32 47 -45 47 C-43.17224467 37.7981973 -35.88543189 29.96442774 -30 23 C-29.34515625 22.18660156 -28.6903125 21.37320312 -28.015625 20.53515625 C-22.42072162 13.87806256 -9.58375097 0 0 0 Z " fill="#0A3175" transform="translate(459,302)"/>
<path d="M0 0 C0.99 0.33 1.98 0.66 3 1 C2.53851563 1.48726563 2.07703125 1.97453125 1.6015625 2.4765625 C-11.61348839 16.84074825 -21.94965798 33.77779673 -29 52 C-30.56556063 48.04791401 -29.38202998 45.66812462 -27.75 41.875 C-21.80445035 28.3630457 -13.6809969 16.09959843 -4 5 C-2.65959622 3.33901437 -1.32428144 1.67386804 0 0 Z " fill="#0B3378" transform="translate(403,293)"/>
<path d="M0 0 C0.66 0.33 1.32 0.66 2 1 C2 2.65 2 4.3 2 6 C0.81921875 6.06058594 -0.3615625 6.12117187 -1.578125 6.18359375 C-3.1354277 6.26802582 -4.69271879 6.35267249 -6.25 6.4375 C-7.02730469 6.47681641 -7.80460938 6.51613281 -8.60546875 6.55664062 C-9.35957031 6.59853516 -10.11367188 6.64042969 -10.890625 6.68359375 C-11.92751465 6.73858032 -11.92751465 6.73858032 -12.98535156 6.79467773 C-15.06628329 7.00675524 -16.98572422 7.44508677 -19 8 C-21.07675293 16.04741759 -23.12810673 26.38105154 -20.109375 34.3515625 C-19.08812516 36.16108198 -19.08812516 36.16108198 -17 37 C-17 37.66 -17 38.32 -17 39 C-18.8125 38.9375 -18.8125 38.9375 -21 38 C-24.16594638 32.30731256 -24.33540329 27.78061098 -23.875 21.375 C-23.83890625 20.54226563 -23.8028125 19.70953125 -23.765625 18.8515625 C-23.41670213 13.08515295 -22.3958156 9.48923043 -18.296875 5.23046875 C-15.04744091 3.48970049 -11.85688661 3.43182045 -8.25 3.3125 C-7.55261719 3.27833984 -6.85523438 3.24417969 -6.13671875 3.20898438 C-4.42502892 3.12691705 -2.7125424 3.06177081 -1 3 C-0.67 2.01 -0.34 1.02 0 0 Z " fill="#104089" transform="translate(591,650)"/>
<path d="M0 0 C13.54586996 9.72523997 23.1881779 28.3384444 28 44 C28 44.99 28 45.98 28 47 C27.34 47 26.68 47 26 47 C25.6596875 46.09121094 25.319375 45.18242187 24.96875 44.24609375 C22.29467361 37.25596425 19.39221371 30.4863351 15.875 23.875 C15.38870117 22.95352173 15.38870117 22.95352173 14.89257812 22.01342773 C12.43668923 17.49581264 9.63296255 13.63296255 6 10 C4.94534542 8.86610971 3.9047258 7.71907608 2.875 6.5625 C2.33617187 5.96566406 1.79734375 5.36882812 1.2421875 4.75390625 C0 3 0 3 0 0 Z " fill="#0B3278" transform="translate(589,320)"/>
<path d="M0 0 C0.33 0 0.66 0 1 0 C2.98548926 7.89016165 3.86109296 15.78625036 4.625 23.875 C4.69103424 24.55587677 4.75706848 25.23675354 4.82510376 25.93826294 C5.88535714 36.97679935 6.38140592 47.91097604 6 59 C5.67 59 5.34 59 5 59 C3.69070006 48.04809108 2.59553316 37.07690694 1.58047485 26.09420776 C1.44433232 24.62381584 1.30695759 23.15353744 1.16830444 21.68338013 C-0.20291378 7.10198221 -0.20291378 7.10198221 0 0 Z " fill="#0A3172" transform="translate(736,488)"/>
<path d="M0 0 C0.33 0 0.66 0 1 0 C0.2836394 11.49286369 -0.86377742 22.92451564 -2.0625 34.375 C-2.25085461 36.19008305 -2.43900698 38.00518711 -2.62695312 39.8203125 C-3.08230959 44.21378668 -3.5403831 48.60696956 -4 53 C-4.33 53 -4.66 53 -5 53 C-5.76967408 44.22155506 -6.40698453 36.00962671 -4.60546875 27.31640625 C-3.65532362 22.11206292 -3.24107547 16.85259806 -2.78588867 11.58447266 C-2.38862587 7.38434115 -1.8677958 3.85232883 0 0 Z " fill="#0B3378" transform="translate(294,419)"/>
<path d="M0 0 C1.72774308 -0.10892951 3.45750948 -0.18601092 5.1875 -0.25 C6.15042969 -0.29640625 7.11335938 -0.3428125 8.10546875 -0.390625 C11.87435264 0.11799631 13.23793669 1.40849062 16 4 C17.69750977 6.8815918 17.69750977 6.8815918 19.19140625 10.19921875 C19.59938698 11.09094536 19.59938698 11.09094536 20.01560974 12.00068665 C20.87695837 13.89096332 21.71989793 15.78880444 22.5625 17.6875 C23.13096616 18.94259936 23.70061828 20.19716227 24.27148438 21.45117188 C25.86446175 24.96001575 27.43479194 28.47867225 29 32 C29.42651855 32.95729004 29.85303711 33.91458008 30.29248047 34.90087891 C31.19694862 36.93304733 32.09885169 38.96635724 33 41 C32.01 41 31.02 41 30 41 C29.62713867 40.19369141 29.25427734 39.38738281 28.87011719 38.55664062 C27.46956231 35.5294947 26.06790474 32.50286429 24.66552734 29.4765625 C24.06190313 28.17337807 23.45870317 26.86999703 22.85595703 25.56640625 C21.98324664 23.67915194 21.10922923 21.79251141 20.234375 19.90625 C19.95235229 19.29773193 19.67032959 18.68921387 19.37976074 18.06225586 C17.83744308 14.74922973 16.24522276 11.4706197 14.578125 8.21875 C13 5 13 5 13 3 C8.71 2.34 4.42 1.68 0 1 C0 0.67 0 0.34 0 0 Z " fill="#0B2F71" transform="translate(432,449)"/>
<path d="M0 0 C0.33 0 0.66 0 1 0 C1.95261487 4.76307437 2.08333357 9.1666528 2 14 C2.79664063 13.96519531 3.59328125 13.93039062 4.4140625 13.89453125 C15.4447013 13.61272661 15.4447013 13.61272661 20 17 C24.02490815 21.75322486 23.34172548 26.92425021 23.1875 32.8125 C23.16719727 34.28106445 23.16719727 34.28106445 23.14648438 35.77929688 C23.11125312 38.18676625 23.06199265 40.59309564 23 43 C22.67 43 22.34 43 22 43 C21.96261719 41.77023437 21.92523437 40.54046875 21.88671875 39.2734375 C21.82102972 37.64059599 21.75458341 36.00778482 21.6875 34.375 C21.66494141 33.56675781 21.64238281 32.75851562 21.61914062 31.92578125 C21.39323618 26.87373641 20.56597182 23.47153267 18 19 C18 18.34 18 17.68 18 17 C16.72382812 16.95101562 15.44765625 16.90203125 14.1328125 16.8515625 C12.46351928 16.77653809 10.79424954 16.70099012 9.125 16.625 C8.28324219 16.5940625 7.44148437 16.563125 6.57421875 16.53125 C5.76855469 16.49257813 4.96289062 16.45390625 4.1328125 16.4140625 C3.38918457 16.3826416 2.64555664 16.3512207 1.87939453 16.31884766 C0 16 0 16 -2 14 C-1.34 14 -0.68 14 0 14 C0 9.38 0 4.76 0 0 Z " fill="#0B3073" transform="translate(646,640)"/>
<path d="M0 0 C0.33 0 0.66 0 1 0 C1.12315062 8.18267438 0.79065308 16.22588251 0.0625 24.375 C-0.02451172 25.41527344 -0.11152344 26.45554687 -0.20117188 27.52734375 C-0.62061915 32.39293215 -1.08399008 37.19713717 -2 42 C-2.33 42 -2.66 42 -3 42 C-3.20535665 31.37849769 -3.07977328 20.89489151 -2.0625 10.3125 C-1.97564941 9.39831299 -1.88879883 8.48412598 -1.79931641 7.54223633 C-1.13678955 1.13678955 -1.13678955 1.13678955 0 0 Z " fill="#0C3275" transform="translate(272,640)"/>
<path d="M0 0 C1.52805956 4.64283823 -0.34915997 7.64787322 -2.40234375 11.828125 C-2.93717125 12.95163361 -2.93717125 12.95163361 -3.48280334 14.09783936 C-4.62339647 16.48733295 -5.7801588 18.86858022 -6.9375 21.25 C-7.71396892 22.86927505 -8.4893728 24.48906126 -9.26367188 26.109375 C-11.16347671 30.07895234 -13.07781954 34.04121229 -15 38 C-15.99 38 -16.98 38 -18 38 C-6.31200234 12.23623663 -6.31200234 12.23623663 0 0 Z " fill="#0A3075" transform="translate(542,528)"/>
<path d="M0 0 C1.27570699 3.82712096 0.49061056 4.71524098 -1.203125 8.296875 C-1.68910156 9.3384375 -2.17507813 10.38 -2.67578125 11.453125 C-3.19527344 12.54109375 -3.71476563 13.6290625 -4.25 14.75 C-5.25584932 16.89032388 -6.26107373 19.03094158 -7.265625 21.171875 C-7.74281982 22.18241943 -8.22001465 23.19296387 -8.71166992 24.23413086 C-10.2150029 27.46158193 -11.61442581 30.72066297 -13 34 C-13.98537521 36.0072458 -14.98063057 38.00980253 -16 40 C-17.53802294 35.33145266 -15.64185585 32.22205573 -13.6328125 27.98828125 C-13.27863251 27.21945114 -12.92445251 26.45062103 -12.55953979 25.65849304 C-11.42554298 23.20462717 -10.27525772 20.75877879 -9.125 18.3125 C-8.35705201 16.65346698 -7.59011256 14.99396671 -6.82421875 13.33398438 C-1.19913554 1.19913554 -1.19913554 1.19913554 0 0 Z " fill="#0C3378" transform="translate(583,529)"/>
<path d="M0 0 C3.63 0 7.26 0 11 0 C11 0.33 11 0.66 11 1 C8.36 1 5.72 1 3 1 C3.03029297 1.55236328 3.06058594 2.10472656 3.09179688 2.67382812 C3.72666462 14.46283386 4.15030243 26.1929088 4 38 C3.67 38 3.34 38 3 38 C1.29172111 25.34546802 0.4738955 12.75776577 0 0 Z " fill="#0C3073" transform="translate(637,484)"/>
<path d="M0 0 C6.6666548 0.92431956 10.62048666 5.00518916 14.70703125 10.1484375 C20.55605598 18.5888023 23.78063724 25.61318783 23 36 C22.67 36 22.34 36 22 36 C21.93683594 35.44054687 21.87367188 34.88109375 21.80859375 34.3046875 C20.1223507 23.26423301 14.96085591 11.95591555 6 5 C4.03434958 3.59720102 2.04050799 2.29398067 0 1 C0 0.67 0 0.34 0 0 Z " fill="#0B3274" transform="translate(708,393)"/>
<path d="M0 0 C0.33 0 0.66 0 1 0 C1.20302734 1.19882812 1.20302734 1.19882812 1.41015625 2.421875 C3.982226 15.54405121 9.38768347 24.81816866 20 33 C18.515 33.495 18.515 33.495 17 34 C10.52726908 29.51887859 6.84754007 23.78041945 3 17 C2.63519531 16.36835937 2.27039063 15.73671875 1.89453125 15.0859375 C-0.57008587 10.20298714 -0.28867192 5.31370162 0 0 Z " fill="#0A2E6E" transform="translate(267,712)"/>
<path d="M0 0 C-0.82854492 0.03758423 -0.82854492 0.03758423 -1.67382812 0.07592773 C-13.45701601 0.61407871 -25.2303187 1.21757423 -37 2 C-37.33 1.34 -37.66 0.68 -38 0 C-6.90785212 -3.74846132 -6.90785212 -3.74846132 0 0 Z " fill="#0D387D" transform="translate(523,249)"/>
<path d="M0 0 C11.77302189 2.15838735 22.37799352 6.83313964 32 14 C32.495 14.99 32.495 14.99 33 16 C28.94432466 15.31396537 25.65543103 13.24015168 22.125 11.25 C14.97663187 7.31144662 7.7681983 4.48965369 0 2 C0 1.34 0 0.68 0 0 Z " fill="#0C347A" transform="translate(542,293)"/>
<path d="M0 0 C0.33 0 0.66 0 1 0 C1 11.55 1 23.1 1 35 C-3.95 35 -8.9 35 -14 35 C-14 34.67 -14 34.34 -14 34 C-8.06 33.505 -8.06 33.505 -2 33 C-1.34 22.11 -0.68 11.22 0 0 Z " fill="#072565" transform="translate(378,620)"/>
<path d="M0 0 C-0.59949463 0.28198242 -1.19898926 0.56396484 -1.81665039 0.85449219 C-4.56666432 2.15005195 -7.31458691 3.44999062 -10.0625 4.75 C-11.00544922 5.1934375 -11.94839844 5.636875 -12.91992188 6.09375 C-17.04806227 8.04994197 -21.11905126 10.01158822 -25.05859375 12.328125 C-28 14 -28 14 -30 14 C-30 13.34 -30 12.68 -30 12 C-6.59852888 -1.95087701 -6.59852888 -1.95087701 0 0 Z " fill="#0C3479" transform="translate(461,258)"/>
<path d="M0 0 C0.33 0 0.66 0 1 0 C1.78100524 14.34681694 2.13221626 28.63249973 2 43 C-0.70712465 37.76622568 -1.08287296 33.65619449 -0.87890625 27.83203125 C-0.85529526 27.03721848 -0.83168427 26.2424057 -0.80735779 25.42350769 C-0.73081899 22.88631901 -0.64675272 20.3494431 -0.5625 17.8125 C-0.50926951 16.09181215 -0.45652917 14.37110906 -0.40429688 12.65039062 C-0.27521711 8.43339589 -0.13938609 4.21666615 0 0 Z " fill="#092E71" transform="translate(641,530)"/>
<path d="M0 0 C0.66 0.33 1.32 0.66 2 1 C1.401875 2.175625 0.80375 3.35125 0.1875 4.5625 C-1.35479009 7.64170635 -2.74775831 10.74672243 -4.07421875 13.92578125 C-6.20509144 18.70001499 -8.63485801 23.33860365 -11 28 C-12.19656995 24.41029014 -11.76286289 23.83400288 -10.234375 20.5078125 C-9.83863281 19.63769531 -9.44289063 18.76757812 -9.03515625 17.87109375 C-8.39900391 16.51177734 -8.39900391 16.51177734 -7.75 15.125 C-7.34136719 14.22652344 -6.93273437 13.32804688 -6.51171875 12.40234375 C-4.54632823 8.12398561 -2.55563745 3.96621656 0 0 Z " fill="#0B3277" transform="translate(564,571)"/>
<path d="M0 0 C2 2 2 2 2.23046875 4.484375 C2.08331214 15.66827762 1.57046693 26.8303788 1 38 C0.67 38 0.34 38 0 38 C-0.73306308 25.24536736 -1.30721697 12.73028215 0 0 Z " fill="#113F88" transform="translate(384,488)"/>
<path d="M0 0 C0 0.66 0 1.32 0 2 C-1.45019531 2.36351562 -1.45019531 2.36351562 -2.9296875 2.734375 C-9.8475829 4.5050215 -16.44574162 6.34180396 -22.94921875 9.36328125 C-25.36339129 10.11282434 -26.64519064 9.8239175 -29 9 C-20.32010214 4.01671747 -10.11959833 0 0 0 Z " fill="#0B3379" transform="translate(490,291)"/>
<path d="M0 0 C4.69023454 0.56606279 9.34500026 1.18537505 14 2 C14 2.66 14 3.32 14 4 C14.60328125 4.19335938 15.2065625 4.38671875 15.828125 4.5859375 C16.62734375 4.84632813 17.4265625 5.10671875 18.25 5.375 C19.03890625 5.63023437 19.8278125 5.88546875 20.640625 6.1484375 C22.86627958 6.95173667 24.90931672 7.89711662 27 9 C27 9.66 27 10.32 27 11 C23.28061755 10.39343404 20.26391244 9.32125928 16.875 7.6875 C11.36108003 5.10683542 5.74979392 2.99074103 0 1 C0 0.67 0 0.34 0 0 Z " fill="#0A337A" transform="translate(553,254)"/>
<path d="M0 0 C0.33 0 0.66 0 1 0 C1.30384747 9.85816251 0.39879438 19.27088552 -1 29 C-1.33 29 -1.66 29 -2 29 C-2.21800367 8.33809621 -2.21800367 8.33809621 -1 1 C-0.67 0.67 -0.34 0.34 0 0 Z " fill="#0B3071" transform="translate(279,567)"/>
<path d="M0 0 C0.33 0 0.66 0 1 0 C1.25068829 9.94396878 0.6950751 19.1776452 -1 29 C-1.33 29 -1.66 29 -2 29 C-2.21800367 8.33809621 -2.21800367 8.33809621 -1 1 C-0.67 0.67 -0.34 0.34 0 0 Z " fill="#0B3277" transform="translate(288,474)"/>
<path d="M0 0 C-0.76183594 0.556875 -1.52367187 1.11375 -2.30859375 1.6875 C-8.83069913 6.50783256 -15.04371899 11.47991129 -21 17 C-21.33 16.01 -21.66 15.02 -22 14 C-19.77476959 12.05781649 -17.54507535 10.12120912 -15.3125 8.1875 C-14.68666016 7.64029297 -14.06082031 7.09308594 -13.41601562 6.52929688 C-4.22688138 -1.40896046 -4.22688138 -1.40896046 0 0 Z " fill="#0C367C" transform="translate(430,274)"/>
<path d="M0 0 C3.97452361 1.9872618 5.35485072 7.55614709 7.1875 11.4375 C7.66380859 12.41783203 8.14011719 13.39816406 8.63085938 14.40820312 C9.29891602 15.81295898 9.29891602 15.81295898 9.98046875 17.24609375 C10.39192139 18.10904053 10.80337402 18.9719873 11.22729492 19.86108398 C11.4822876 20.56692627 11.73728027 21.27276855 12 22 C11.67 22.66 11.34 23.32 11 24 C0 7.17647059 0 7.17647059 0 0 Z " fill="#0B3072" transform="translate(470,503)"/>
<path d="M0 0 C0.33 0 0.66 0 1 0 C1.01981934 0.58491211 1.03963867 1.16982422 1.06005859 1.77246094 C1.15553481 4.43208025 1.26512142 7.09093838 1.375 9.75 C1.4059375 10.67039062 1.436875 11.59078125 1.46875 12.5390625 C1.50742187 13.42851563 1.54609375 14.31796875 1.5859375 15.234375 C1.6173584 16.05131836 1.6487793 16.86826172 1.68115234 17.70996094 C2.02868454 20.20601917 2.67095532 21.86620725 4 24 C4.66 24.33 5.32 24.66 6 25 C6 25.66 6 26.32 6 27 C4.1875 26.9375 4.1875 26.9375 2 26 C-1.27440582 20.19256327 -1.24887001 15.59525725 -0.6875 9.0625 C-0.62626953 8.18787109 -0.56503906 7.31324219 -0.50195312 6.41210938 C-0.35003643 4.27358976 -0.1771587 2.13657662 0 0 Z " fill="#082B6F" transform="translate(568,662)"/>
<path d="M0 0 C0.33 0 0.66 0 1 0 C1.06058594 0.69867187 1.12117187 1.39734375 1.18359375 2.1171875 C1.26738281 3.02726563 1.35117187 3.93734375 1.4375 4.875 C1.51871094 5.77992188 1.59992187 6.68484375 1.68359375 7.6171875 C1.86989285 10.01110861 1.86989285 10.01110861 3 12 C3.01619227 13.74257981 2.96497633 15.48603427 2.87890625 17.2265625 C2.83056641 18.2578125 2.78222656 19.2890625 2.73242188 20.3515625 C2.67634766 21.43179688 2.62027344 22.51203125 2.5625 23.625 C2.51029297 24.71296875 2.45808594 25.8009375 2.40429688 26.921875 C2.27437225 29.6148581 2.13939838 32.30749336 2 35 C1.67 35 1.34 35 1 35 C0.37160039 23.32446893 -0.17691295 11.69591188 0 0 Z " fill="#124692" transform="translate(639,512)"/>
<path d="M0 0 C1.04398649 4.17594596 1.09768837 4.55546362 -0.65234375 8.109375 C-1.01650391 8.86347656 -1.38066406 9.61757813 -1.75585938 10.39453125 C-2.34077148 11.56048828 -2.34077148 11.56048828 -2.9375 12.75 C-3.51661133 13.93916016 -3.51661133 13.93916016 -4.10742188 15.15234375 C-5.06107367 17.10674125 -6.0291649 19.05408106 -7 21 C-7.99 21 -8.98 21 -10 21 C-6.7 14.07 -3.4 7.14 0 0 Z " fill="#0B3074" transform="translate(572,463)"/>
<path d="M0 0 C1.34384766 0.07250977 1.34384766 0.07250977 2.71484375 0.14648438 C3.65199219 0.20255859 4.58914063 0.25863281 5.5546875 0.31640625 C6.97201172 0.3947168 6.97201172 0.3947168 8.41796875 0.47460938 C10.7555294 0.60447386 13.09268295 0.73944495 15.4296875 0.87890625 C15.4296875 1.20890625 15.4296875 1.53890625 15.4296875 1.87890625 C14.84477539 1.87777832 14.25986328 1.87665039 13.65722656 1.87548828 C10.99688404 1.88762392 8.33939505 1.94529011 5.6796875 2.00390625 C4.75929688 2.00132812 3.83890625 1.99875 2.890625 1.99609375 C0.27523101 2.07190227 -2.03797501 2.21492601 -4.5703125 2.87890625 C-7.24676191 5.85544242 -8.31669801 8.11806277 -9.5703125 11.87890625 C-10.2303125 11.87890625 -10.8903125 11.87890625 -11.5703125 11.87890625 C-11.0388914 7.36182693 -9.28015567 4.49203048 -6.5703125 0.87890625 C-4.11781157 -0.34734422 -2.72720815 -0.1553473 0 0 Z " fill="#134996" transform="translate(585.5703125,449.12109375)"/>
<path d="M0 0 C0.66 0.33 1.32 0.66 2 1 C0.71887169 3.98380926 -0.57663903 6.96115348 -1.875 9.9375 C-2.42220703 11.21270508 -2.42220703 11.21270508 -2.98046875 12.51367188 C-3.33496094 13.32255859 -3.68945312 14.13144531 -4.0546875 14.96484375 C-4.37937012 15.7137085 -4.70405273 16.46257324 -5.03857422 17.23413086 C-6 19 -6 19 -8 20 C-7.45318976 14.99399078 -5.75859667 11.02818933 -3.4375 6.625 C-3.10814453 5.98433594 -2.77878906 5.34367188 -2.43945312 4.68359375 C-1.63360518 3.11861368 -0.81781507 1.55875979 0 0 Z " fill="#0B3377" transform="translate(547,608)"/>
<path d="M0 0 C0.66 0.99 1.32 1.98 2 3 C1.28513867 6.17716145 0.47185398 7.63076111 -2.1015625 9.64453125 C-5.73436187 11.34342799 -8.89496189 11.33370477 -12.8125 11.1875 C-13.85180664 11.16719727 -13.85180664 11.16719727 -14.91210938 11.14648438 C-16.60841265 11.11138845 -18.30431136 11.05758943 -20 11 C-20 10.67 -20 10.34 -20 10 C-18.96359375 9.90203125 -17.9271875 9.8040625 -16.859375 9.703125 C-15.48948259 9.5529998 -14.11969596 9.40190713 -12.75 9.25 C-12.06808594 9.188125 -11.38617187 9.12625 -10.68359375 9.0625 C-7.29962862 8.66825164 -5.25350233 8.20150185 -2.5625 6.0625 C-0.98413792 3.97906205 -0.36672977 2.56710839 0 0 Z " fill="#0E4089" transform="translate(658,473)"/>
<path d="M0 0 C0.33 0 0.66 0 1 0 C1.02902429 3.27081471 1.04680684 6.5415963 1.0625 9.8125 C1.07087891 10.74126953 1.07925781 11.67003906 1.08789062 12.62695312 C1.09111328 13.51962891 1.09433594 14.41230469 1.09765625 15.33203125 C1.10289307 16.15421143 1.10812988 16.9763916 1.11352539 17.82348633 C1 20 1 20 0 23 C-0.66 23 -1.32 23 -2 23 C-2 18.71 -2 14.42 -2 10 C-1.67 10 -1.34 10 -1 10 C-0.67 6.7 -0.34 3.4 0 0 Z " fill="#1152A9" transform="translate(591,630)"/>
<path d="M0 0 C4.62 0 9.24 0 14 0 C15.33332095 2.6666419 14.67102033 4.16680303 14 7 C13.34 6.34 12.68 5.68 12 5 C12 4.01 12 3.02 12 2 C11.30132812 2.02320313 10.60265625 2.04640625 9.8828125 2.0703125 C8.97273438 2.08835937 8.06265625 2.10640625 7.125 2.125 C6.22007812 2.14820313 5.31515625 2.17140625 4.3828125 2.1953125 C2 2 2 2 0 0 Z " fill="#0E367D" transform="translate(372,483)"/>
<path d="M0 0 C2.05710856 3.08566284 2.78346093 5.36985312 3.6875 8.9375 C3.95949219 9.97777344 4.23148438 11.01804687 4.51171875 12.08984375 C4.97828785 14.8705956 4.93894816 16.38480882 4 19 C0.19832251 13.29748376 -0.28602017 6.72147407 0 0 Z " fill="#0B3277" transform="translate(617,368)"/>
<path d="M0 0 C0 0.33 0 0.66 0 1 C-2.01822917 1.42317708 -4.03645833 1.84635417 -6.0546875 2.26953125 C-8.37046549 2.92308838 -8.37046549 2.92308838 -10 6 C-10.45394552 8.27912938 -10.45394552 8.27912938 -10.625 10.6875 C-10.69976562 11.49574219 -10.77453125 12.30398438 -10.8515625 13.13671875 C-10.90054687 13.75160156 -10.94953125 14.36648438 -11 15 C-11.33 15 -11.66 15 -12 15 C-12.65860048 11.64178963 -13.13624949 8.42719874 -13 5 C-8.88043974 -0.45563386 -6.4866628 -1.26912968 0 0 Z " fill="#10448F" transform="translate(377,450)"/>
<path d="M0 0 C4.51045941 2.46025059 8.18504423 5.60282037 12 9 C11.01 9.33 10.02 9.66 9 10 C7.49410612 8.71520959 5.99542625 7.42195918 4.5 6.125 C3.6646875 5.40570313 2.829375 4.68640625 1.96875 3.9453125 C1.3190625 3.30335938 0.669375 2.66140625 0 2 C0 1.34 0 0.68 0 0 Z " fill="#0B3278" transform="translate(576,309)"/>
<path d="M0 0 C2 1 2 1 2.8515625 3.06640625 C3.10679687 3.89011719 3.36203125 4.71382812 3.625 5.5625 C3.88539063 6.38878906 4.14578125 7.21507812 4.4140625 8.06640625 C4.60742188 8.70449219 4.80078125 9.34257813 5 10 C4.01 10.495 4.01 10.495 3 11 C3 10.01 3 9.02 3 8 C2.01 8 1.02 8 0 8 C0 5.36 0 2.72 0 0 Z " fill="#0F3A82" transform="translate(425,527)"/>
<path d="M0 0 C1 3 1 3 0.328125 5.0078125 C-0.02765625 5.70648437 -0.3834375 6.40515625 -0.75 7.125 C-1.26820313 8.18074219 -1.26820313 8.18074219 -1.796875 9.2578125 C-3 11 -3 11 -6 12 C-4 8 -2 4 0 0 Z " fill="#0B3175" transform="translate(524,659)"/>
<path d="M0 0 C0.33 0 0.66 0 1 0 C1.33 6.27 1.66 12.54 2 19 C1.67 19 1.34 19 1 19 C1 17.02 1 15.04 1 13 C0.34 13 -0.32 13 -1 13 C-0.67 8.71 -0.34 4.42 0 0 Z " fill="#134791" transform="translate(736,475)"/>
<path d="M0 0 C0.66 0 1.32 0 2 0 C1.45144652 4.571279 0.58255197 8.67435795 -1 13 C-1.33 13 -1.66 13 -2 13 C-1.85851011 11.3954444 -1.71164314 9.79136233 -1.5625 8.1875 C-1.48128906 7.29417969 -1.40007812 6.40085937 -1.31640625 5.48046875 C-1 3 -1 3 0 0 Z " fill="#0B347B" transform="translate(371,346)"/>
<path d="M0 0 C3.44216672 2.6598561 3.99504674 5.90288286 5 10 C1.32769295 6.92000054 0.43197635 4.7517398 0 0 Z " fill="#082A6D" transform="translate(465,492)"/>
<path d="M0 0 C0 3.69418201 -1.28179295 5.77836178 -3 9 C-3.66 9 -4.32 9 -5 9 C-4.37315423 6.07471973 -3.51695295 3.58774327 -2 1 C-1.34 0.67 -0.68 0.34 0 0 Z " fill="#0D377E" transform="translate(419,340)"/>
<path d="M0 0 C0.99 0.33 1.98 0.66 3 1 C-0.96 4.465 -0.96 4.465 -5 8 C-5.33 7.01 -5.66 6.02 -6 5 C-1.60546875 0.99609375 -1.60546875 0.99609375 0 0 Z " fill="#0B3072" transform="translate(414,283)"/>
<path d="M0 0 C2.5625 2.1875 2.5625 2.1875 5 5 C4.8125 7.8125 4.8125 7.8125 4 10 C3.67 10 3.34 10 3 10 C2.67 7.69 2.34 5.38 2 3 C1.01 2.67 0.02 2.34 -1 2 C-0.67 1.34 -0.34 0.68 0 0 Z " fill="#0F3A81" transform="translate(438,656)"/>
<path d="M0 0 C4.31392226 0.4793247 6.16569547 1.7457985 9 5 C8.67 5.66 8.34 6.32 8 7 C6.66382648 6.02471263 5.3311249 5.04466681 4 4.0625 C3.2575 3.51722656 2.515 2.97195313 1.75 2.41015625 C1.1725 1.94480469 0.595 1.47945313 0 1 C0 0.67 0 0.34 0 0 Z " fill="#072C6F" transform="translate(708,393)"/>
<path d="M0 0 C0.66 0.99 1.32 1.98 2 3 C0.35 4.65 -1.3 6.3 -3 8 C-3.66 7.67 -4.32 7.34 -5 7 C-4.0409375 6.1028125 -4.0409375 6.1028125 -3.0625 5.1875 C-0.79689611 3.09189663 -0.79689611 3.09189663 0 0 Z " fill="#0D367B" transform="translate(441,682)"/>
<path d="M0 0 C2.92879371 0.62759865 5.36095629 1.58622659 8 3 C8 3.66 8 4.32 8 5 C6.35 4.67 4.7 4.34 3 4 C2.67 3.01 2.34 2.02 2 1 C1.34 0.67 0.68 0.34 0 0 Z " fill="#0F3C85" transform="translate(572,260)"/>
<path d="M0 0 C0.33 0 0.66 0 1 0 C1 1.65 1 3.3 1 5 C0.67 5 0.34 5 0 5 C0 3.35 0 1.7 0 0 Z " fill="#124C9C" transform="translate(743,531)"/>
<path d="M0 0 C1.65 0 3.3 0 5 0 C5 0.33 5 0.66 5 1 C3.35 1 1.7 1 0 1 C0 0.67 0 0.34 0 0 Z " fill="#124C99" transform="translate(539,248)"/>
<path d="M0 0 C1.65 0 3.3 0 5 0 C5 0.33 5 0.66 5 1 C3.35 1 1.7 1 0 1 C0 0.67 0 0.34 0 0 Z " fill="#124C99" transform="translate(480,248)"/>
<path d="M0 0 C0.66 0 1.32 0 2 0 C2 0.66 2 1.32 2 2 C1.34 2 0.68 2 0 2 C0 1.34 0 0.68 0 0 Z " fill="#1552A2" transform="translate(405,384)"/>
<path d="M0 0 C0.33 0.66 0.66 1.32 1 2 C0.34 1.67 -0.32 1.34 -1 1 C-0.67 0.67 -0.34 0.34 0 0 Z " fill="#1651A3" transform="translate(526,570)"/>
<path d="" fill="#1551A1" transform="translate(0,0)"/>
<path d="M0 0 C0.33 0.66 0.66 1.32 1 2 C0.34 1.67 -0.32 1.34 -1 1 C-0.67 0.67 -0.34 0.34 0 0 Z " fill="#1554A7" transform="translate(441,452)"/>
<path d="M0 0 C0.66 0.66 1.32 1.32 2 2 C1.34 2 0.68 2 0 2 C0 1.34 0 0.68 0 0 Z " fill="#154FA2" transform="translate(590,326)"/>
<path d="M0 0 C2 1 2 1 2 1 Z " fill="#134891" transform="translate(264,720)"/>
<path d="" fill="#134A96" transform="translate(0,0)"/>
<path d="" fill="#1751A4" transform="translate(0,0)"/>
<path d="" fill="#1753A5" transform="translate(0,0)"/>
<path d="" fill="#1650A2" transform="translate(0,0)"/>
<path d="" fill="#134A9A" transform="translate(0,0)"/>
<path d="" fill="#1751A3" transform="translate(0,0)"/>
<path d="" fill="#144E9C" transform="translate(0,0)"/>
<path d="" fill="#16519F" transform="translate(0,0)"/>
<path d="" fill="#144A94" transform="translate(0,0)"/>
<path d="M0 0 C2 1 2 1 2 1 Z " fill="#154FA1" transform="translate(601,341)"/>
<path d="" fill="#1652A5" transform="translate(0,0)"/>
<path d="M0 0 C2 1 2 1 2 1 Z " fill="#124B95" transform="translate(448,256)"/>
<path d="" fill="#134C99" transform="translate(0,0)"/>
<path d="" fill="#174891" transform="translate(0,0)"/>
<path d="" fill="#164A93" transform="translate(0,0)"/>
<path d="" fill="#15488F" transform="translate(0,0)"/>
<path d="" fill="#154891" transform="translate(0,0)"/>
<path d="" fill="#12478D" transform="translate(0,0)"/>
<path d="" fill="#134890" transform="translate(0,0)"/>
<path d="" fill="#124995" transform="translate(0,0)"/>
<path d="" fill="#114B95" transform="translate(0,0)"/>
<path d="" fill="#124C98" transform="translate(0,0)"/>
<path d="" fill="#154C9B" transform="translate(0,0)"/>
<path d="" fill="#144C98" transform="translate(0,0)"/>
<path d="" fill="#144D9A" transform="translate(0,0)"/>
<path d="" fill="#124A97" transform="translate(0,0)"/>
<path d="" fill="#1558A9" transform="translate(0,0)"/>
<path d="" fill="#154E9B" transform="translate(0,0)"/>
<path d="" fill="#144C9C" transform="translate(0,0)"/>
<path d="" fill="#1755A7" transform="translate(0,0)"/>
<path d="" fill="#1754A3" transform="translate(0,0)"/>
<path d="" fill="#1450A3" transform="translate(0,0)"/>
<path d="" fill="#144995" transform="translate(0,0)"/>
<path d="" fill="#1352A0" transform="translate(0,0)"/>
<path d="" fill="#1553A7" transform="translate(0,0)"/>
<path d="" fill="#1651A5" transform="translate(0,0)"/>
<path d="" fill="#1753A5" transform="translate(0,0)"/>
<path d="" fill="#1650A2" transform="translate(0,0)"/>
<path d="" fill="#154C98" transform="translate(0,0)"/>
<path d="" fill="#1451A4" transform="translate(0,0)"/>
<path d="" fill="#114E9C" transform="translate(0,0)"/>
<path d="" fill="#144C98" transform="translate(0,0)"/>
<path d="" fill="#1553A5" transform="translate(0,0)"/>
<path d="" fill="#1755A6" transform="translate(0,0)"/>
<path d="" fill="#1756A5" transform="translate(0,0)"/>
<path d="" fill="#1550A4" transform="translate(0,0)"/>
<path d="" fill="#124C9C" transform="translate(0,0)"/>
<path d="" fill="#1551A0" transform="translate(0,0)"/>
<path d="" fill="#144D9A" transform="translate(0,0)"/>
<path d="" fill="#1551A2" transform="translate(0,0)"/>
<path d="" fill="#1450A1" transform="translate(0,0)"/>
<path d="" fill="#124C99" transform="translate(0,0)"/>
<path d="" fill="#1852A5" transform="translate(0,0)"/>
<path d="" fill="#1755A4" transform="translate(0,0)"/>
<path d="" fill="#114D9C" transform="translate(0,0)"/>
<path d="" fill="#1654A4" transform="translate(0,0)"/>
<path d="" fill="#1450A3" transform="translate(0,0)"/>
<path d="" fill="#1452A1" transform="translate(0,0)"/>
<path d="" fill="#134FA1" transform="translate(0,0)"/>
<path d="" fill="#1451A3" transform="translate(0,0)"/>
<path d="" fill="#1751A2" transform="translate(0,0)"/>
<path d="" fill="#154E9C" transform="translate(0,0)"/>
<path d="" fill="#1550A2" transform="translate(0,0)"/>
<path d="" fill="#154D9A" transform="translate(0,0)"/>
<path d="" fill="#1751A3" transform="translate(0,0)"/>
<path d="" fill="#1452A3" transform="translate(0,0)"/>
<path d="" fill="#1551A4" transform="translate(0,0)"/>
<path d="" fill="#1550A1" transform="translate(0,0)"/>
<path d="" fill="#1851A0" transform="translate(0,0)"/>
<path d="" fill="#1553A7" transform="translate(0,0)"/>
<path d="" fill="#1552A2" transform="translate(0,0)"/>
<path d="" fill="#144B96" transform="translate(0,0)"/>
<path d="" fill="#1651A1" transform="translate(0,0)"/>
<path d="" fill="#1553A4" transform="translate(0,0)"/>
<path d="" fill="#154B97" transform="translate(0,0)"/>
<path d="" fill="#1552A4" transform="translate(0,0)"/>
<path d="" fill="#1752A5" transform="translate(0,0)"/>
<path d="" fill="#1451A5" transform="translate(0,0)"/>
<path d="" fill="#1251A4" transform="translate(0,0)"/>
<path d="" fill="#1654A3" transform="translate(0,0)"/>
<path d="" fill="#1350A1" transform="translate(0,0)"/>
<path d="" fill="#164E9C" transform="translate(0,0)"/>
<path d="" fill="#1751A3" transform="translate(0,0)"/>
<path d="" fill="#1552A3" transform="translate(0,0)"/>
<path d="" fill="#1753A3" transform="translate(0,0)"/>
<path d="" fill="#1753A6" transform="translate(0,0)"/>
<path d="" fill="#134D9D" transform="translate(0,0)"/>
<path d="" fill="#1551A4" transform="translate(0,0)"/>
<path d="" fill="#1553A7" transform="translate(0,0)"/>
<path d="" fill="#1551A1" transform="translate(0,0)"/>
<path d="" fill="#144B99" transform="translate(0,0)"/>
<path d="" fill="#1652A2" transform="translate(0,0)"/>
<path d="" fill="#124C9A" transform="translate(0,0)"/>
<path d="" fill="#1650A1" transform="translate(0,0)"/>
<path d="" fill="#164EA1" transform="translate(0,0)"/>
<path d="" fill="#1452A3" transform="translate(0,0)"/>
<path d="" fill="#174FA4" transform="translate(0,0)"/>
<path d="" fill="#1651A4" transform="translate(0,0)"/>
<path d="" fill="#144FA4" transform="translate(0,0)"/>
<path d="" fill="#1750A2" transform="translate(0,0)"/>
<path d="" fill="#1551A2" transform="translate(0,0)"/>
<path d="" fill="#114E9F" transform="translate(0,0)"/>
<path d="" fill="#164B97" transform="translate(0,0)"/>
<path d="" fill="#1650A0" transform="translate(0,0)"/>
<path d="" fill="#1751A2" transform="translate(0,0)"/>
<path d="" fill="#1251A2" transform="translate(0,0)"/>
<path d="" fill="#1452A2" transform="translate(0,0)"/>
<path d="" fill="#1553A5" transform="translate(0,0)"/>
<path d="" fill="#1654A6" transform="translate(0,0)"/>
<path d="" fill="#1453A6" transform="translate(0,0)"/>
<path d="" fill="#1753A3" transform="translate(0,0)"/>
<path d="" fill="#1757A6" transform="translate(0,0)"/>
<path d="" fill="#1552A3" transform="translate(0,0)"/>
<path d="" fill="#1755A8" transform="translate(0,0)"/>
<path d="" fill="#15509F" transform="translate(0,0)"/>
<path d="" fill="#144D9A" transform="translate(0,0)"/>
<path d="" fill="#144C97" transform="translate(0,0)"/>
<path d="" fill="#154C96" transform="translate(0,0)"/>
<path d="" fill="#134791" transform="translate(0,0)"/>
<path d="" fill="#154993" transform="translate(0,0)"/>
<path d="" fill="#164893" transform="translate(0,0)"/>
<path d="" fill="#144994" transform="translate(0,0)"/>
<path d="" fill="#134D9A" transform="translate(0,0)"/>
<path d="" fill="#144F9E" transform="translate(0,0)"/>
<path d="" fill="#154F9F" transform="translate(0,0)"/>
<path d="" fill="#1654A1" transform="translate(0,0)"/>
<path d="" fill="#1754A4" transform="translate(0,0)"/>
<path d="" fill="#1753A3" transform="translate(0,0)"/>
<path d="" fill="#1654A0" transform="translate(0,0)"/>
<path d="" fill="#1654A2" transform="translate(0,0)"/>
<path d="" fill="#1956A6" transform="translate(0,0)"/>
<path d="" fill="#1453A3" transform="translate(0,0)"/>
<path d="" fill="#1553A2" transform="translate(0,0)"/>
<path d="" fill="#1550A1" transform="translate(0,0)"/>
<path d="" fill="#1957A4" transform="translate(0,0)"/>
<path d="" fill="#154F9E" transform="translate(0,0)"/>
<path d="" fill="#1553A6" transform="translate(0,0)"/>
<path d="" fill="#1452A4" transform="translate(0,0)"/>
<path d="" fill="#1651A0" transform="translate(0,0)"/>
<path d="" fill="#1552A1" transform="translate(0,0)"/>
<path d="" fill="#1752A2" transform="translate(0,0)"/>
<path d="" fill="#1650A2" transform="translate(0,0)"/>
<path d="" fill="#1452A3" transform="translate(0,0)"/>
<path d="" fill="#16509F" transform="translate(0,0)"/>
<path d="" fill="#1653A4" transform="translate(0,0)"/>
<path d="" fill="#12509E" transform="translate(0,0)"/>
<path d="" fill="#1452A3" transform="translate(0,0)"/>
<path d="" fill="#124F9F" transform="translate(0,0)"/>
<path d="" fill="#124A96" transform="translate(0,0)"/>
<path d="" fill="#1450A2" transform="translate(0,0)"/>
<path d="" fill="#1451A2" transform="translate(0,0)"/>
<path d="" fill="#144C9A" transform="translate(0,0)"/>
<path d="" fill="#1554A4" transform="translate(0,0)"/>
<path d="" fill="#1350A2" transform="translate(0,0)"/>
<path d="" fill="#144D9E" transform="translate(0,0)"/>
<path d="" fill="#124FA3" transform="translate(0,0)"/>
<path d="" fill="#1451A4" transform="translate(0,0)"/>
<path d="" fill="#114A99" transform="translate(0,0)"/>
<path d="" fill="#1550A4" transform="translate(0,0)"/>
<path d="" fill="#1452A3" transform="translate(0,0)"/>
<path d="" fill="#1250A0" transform="translate(0,0)"/>
<path d="" fill="#1451A3" transform="translate(0,0)"/>
<path d="" fill="#1752A2" transform="translate(0,0)"/>
<path d="" fill="#1250A2" transform="translate(0,0)"/>
<path d="" fill="#1451A3" transform="translate(0,0)"/>
<path d="" fill="#1651A3" transform="translate(0,0)"/>
<path d="" fill="#1551A3" transform="translate(0,0)"/>
<path d="" fill="#1553A5" transform="translate(0,0)"/>
<path d="" fill="#1550A3" transform="translate(0,0)"/>
<path d="" fill="#134FA3" transform="translate(0,0)"/>
<path d="" fill="#124B96" transform="translate(0,0)"/>
<path d="" fill="#144C99" transform="translate(0,0)"/>
<path d="" fill="#134D98" transform="translate(0,0)"/>
<path d="" fill="#134A99" transform="translate(0,0)"/>
<path d="" fill="#114A95" transform="translate(0,0)"/>
<path d="" fill="#124A98" transform="translate(0,0)"/>
<path d="" fill="#144C99" transform="translate(0,0)"/>
<path d="" fill="#144B96" transform="translate(0,0)"/>
<path d="" fill="#154C95" transform="translate(0,0)"/>
</svg>
